<?xml version="1.0" encoding="utf-8"?>
<!-- Generator: Adobe Illustrator 14.0.0, SVG Export Plug-In  -->
<!DOCTYPE svg PUBLIC "-//W3C//DTD SVG 1.1//EN" "http://www.w3.org/Graphics/SVG/1.1/DTD/svg11.dtd" [
	<!ENTITY ns_flows "http://ns.adobe.com/Flows/1.0/">
]>
<svg version="1.1"
	 xmlns="http://www.w3.org/2000/svg" xmlns:xlink="http://www.w3.org/1999/xlink" xmlns:a="http://ns.adobe.com/AdobeSVGViewerExtensions/3.0/"
	 x="0px" y="0px" width="168px" height="29px" viewBox="0 0 168 29" enable-background="new 0 0 168 29" xml:space="preserve">
<defs>
</defs>
<path fill="#FFFFFF" d="M17.084,0.248v1.706h10.79v3.627H5.085v18.666c0,2.729-1.364,4.124-4.093,4.124H0v-3.535h0.124
	c0.558,0,0.868-0.31,0.868-0.961V1.954h11.255V0.248H17.084z M17.208,6.667v2.201h10.418v3.38H17.208v2.79h9.674v9.922
	c0,1.675-1.023,2.543-3.008,2.543H6.791V15.038h6.294V6.667H17.208z M22.79,23.162v-4.496H10.914v5.333h10.883
	C22.448,23.999,22.79,23.719,22.79,23.162z"/>
<path fill="#FFFFFF" d="M42.972,11.41H39.84v1.798h3.503v3.41H32.43v-3.41h3.751V11.41h-3.379V8.124h3.379v-2.17h3.659v2.17h3.131
	V11.41z M41.297,0.372l0.899,1.706c0.186,0.403,0.341,0.589,0.527,0.589h0.62v3.287h-2.046c-0.434,0-0.775-0.186-1.054-0.558
	l-1.395-1.86h-1.427l-1.488,1.768c-0.31,0.372-0.651,0.527-1.054,0.527h-2.326V2.574h0.868c0.186,0,0.372-0.187,0.558-0.589
	l0.992-1.612H41.297z M43.22,18.293v6.79c0,1.86-0.868,2.791-2.542,2.791h-7.751v-9.581H43.22z M39.716,23.502V21.58h-3.287v3.008
	h2.543C39.468,24.587,39.716,24.247,39.716,23.502z M60.676,0.62c-0.124,1.674-0.527,2.853-1.147,3.535
	c-0.62,0.651-1.488,0.961-2.636,0.961h-3.007v1.427h6.17v18.293c0,0.931-0.311,1.705-0.931,2.356
	c-0.496,0.527-1.178,0.807-2.108,0.807h-2.17v-3.163h0.837c0.496,0,0.744-0.465,0.744-1.457v-1.426h-2.542v5.798h-3.751v-5.798
	h-2.543v6.046h-3.658V6.542h6.201V5.116H43.84v-3.41h6.294V0.248h3.751v1.458h1.458c0.558,0,0.961-0.341,1.209-1.085H60.676z
	 M50.134,12.62v-2.419h-2.543v2.419H50.134z M50.134,18.542v-2.542h-2.543v2.542H50.134z M53.886,12.62h2.542v-2.419h-2.542V12.62z
	 M53.886,18.542h2.542v-2.542h-2.542V18.542z"/>
<path fill="#FFFFFF" d="M76.796,4.124l0.931-3.875h4.217l-1.055,3.875h11.473v20.712c0,2.171-1.333,3.287-4,3.287h-8.217v-3.628
	h6.76c0.651,0,0.992-0.187,0.992-0.62V8h-8.062l-0.62,2.325h2.977l1.953,7.132c0.093,0.65,0.372,0.961,0.837,0.961h1.923v3.752
	h-3.752c-1.147,0-1.86-0.683-2.17-2.047l-2.17-8.34l-2.077,7.751c-0.435,1.86-1.179,2.76-2.171,2.76h-3.379v-3.876h0.961
	c0.775,0,1.395-0.992,1.86-2.977L75.835,8h-5.519v19.999h-4.465V4.124h9.798H76.796z"/>
<path fill="#FFFFFF" d="M114.373,13.208v1.457h10.914v3.411h-16.588l-2.201,3.007v3.039c0,0.403,0.248,0.589,0.744,0.589h3.752
	v3.411h-6.171c-1.55,0-2.294-0.651-2.294-1.953v-2.171h-4.496v-3.504h2.791c0.682,0,1.209-0.217,1.611-0.713l1.551-1.705h-5.953
	v-3.411h11.627v-1.457H114.373z M102.033,1.24l0.589,1.643c0.124,0.372,0.372,0.527,0.744,0.527h1.209v3.039h-3.162
	c-0.62,0-1.116-0.434-1.551-1.302L98.281,1.24H102.033z M104.575,7.659l-1.24,4.372c-0.341,1.054-1.147,1.55-2.388,1.55h-2.666
	v-3.039h1.581c0.187,0,0.341-0.155,0.496-0.496l0.714-2.387H104.575z M109.288,0v13.457h-3.876V0H109.288z M125.039,19.038
	c-0.65,1.892-1.271,3.069-1.86,3.535c-0.62,0.558-1.333,0.806-2.14,0.806h-3.751L118,24.185c0.187,0.278,0.435,0.402,0.744,0.402
	h6.666v3.411h-9.085c-0.496,0-0.93-0.248-1.271-0.683l-6.108-8.278h4.589l1.147,1.333h4.774c0.559,0,1.055-0.434,1.458-1.333
	H125.039z M125.039,5.829h-5.209v3.379h4.713v3.411h-14.045V9.208h5.084V5.829h-5.674V2.202h5.674V0.124h4.248v2.078h5.209V5.829z"
	/>
<path fill="#FFFFFF" d="M140.737,12.397v1.391h6.655v2.317h-6.804v2.893h6.433v8.176c0,0.853-0.519,1.297-1.52,1.297h-3.393v-2.168
	h1.946c0.241,0,0.371-0.111,0.371-0.354v-4.635h-3.838v7.75H137.9v-7.75h-3.689v7.102h-2.613v-9.418h6.303v-2.893h-6.878v-2.317
	h6.729v-1.391H140.737z"/>
<path fill="#FFFFFF" d="M156.564,17.254h-1.316v9.048h1.445v2.168h-5.357v-2.168h1.594v-9.048h-1.445v-2.169h1.445v-2.688h2.318
	v2.688h1.316V17.254z M168.001,21.963h-7.508l-0.26,0.649h7.397v4.857c0,1.057-0.649,1.594-1.946,1.594h-1.316v-1.891h0.704
	c0.148,0,0.241-0.037,0.241-0.148v-2.447h-5.896c-0.334,0.778-0.853,1.149-1.558,1.149h-1.445v-2.021h0.5
	c0.334,0,0.574-0.204,0.742-0.649l0.407-1.094h-1.575v-2.021h11.512V21.963z M162.05,25.152l-0.908,2.021h0.26
	c0.297,0,0.52-0.148,0.668-0.464l0.704-1.558h2.317l-1.354,2.985c-0.297,0.667-0.778,1.001-1.465,1.001h-1.445v-1.261l-0.02,0.037
	c-0.277,0.612-0.723,0.927-1.353,0.927h-2.317v-1.946h1.445c0.26,0,0.445-0.13,0.557-0.407l0.594-1.336H162.05z M167.557,12.545
	v5.433c0,0.871-0.612,1.297-1.798,1.297h-8.473v-6.729H167.557z M165.091,15.085v-0.723h-5.414v0.723H165.091z M165.091,17.032
	v-0.278h-5.414v0.724h4.84C164.888,17.477,165.091,17.329,165.091,17.032z"/>
<rect x="130.873" y="0.219" fill="#EFEA3C" width="37.072" height="9.667"/>
<path fill="#040000" d="M141.152,6.643c0,0.384-0.207,0.821-0.623,1.312c-0.443,0.502-0.867,0.752-1.271,0.752
	c-0.535,0-0.938-0.269-1.209-0.808c-0.213-0.442-0.355-1.112-0.424-2.008c-0.021-0.32-0.031-0.635-0.031-0.944
	c0-0.16,0.025-0.672,0.08-1.536c0.016-0.176,0.088-0.312,0.215-0.407c0.133-0.097,0.293-0.145,0.48-0.145
	c0.17,0,0.307,0.051,0.408,0.152c0.096,0.102,0.143,0.234,0.143,0.399c0,0.043-0.008,0.317-0.023,0.824
	c-0.016,0.55-0.023,0.984-0.023,1.304c0,0.507,0.039,0.934,0.119,1.28c0.092,0.39,0.209,0.584,0.354,0.584
	c0.197,0,0.432-0.271,0.703-0.815c0.133-0.283,0.299-0.425,0.496-0.425C140.949,6.163,141.152,6.323,141.152,6.643z M143.992,7.211
	c0.012,0.187-0.045,0.333-0.168,0.439c-0.117,0.112-0.256,0.168-0.416,0.168S143.113,7.768,143,7.667
	c-0.111-0.097-0.172-0.235-0.184-0.416c-0.016-0.357-0.123-0.931-0.32-1.721c-0.191-0.768-0.365-1.325-0.52-1.672
	c-0.043-0.091-0.064-0.173-0.064-0.248c0-0.165,0.064-0.301,0.193-0.408c0.127-0.106,0.271-0.159,0.432-0.159
	c0.244,0,0.418,0.117,0.52,0.352c0.182,0.427,0.377,1.056,0.584,1.888C143.853,6.136,143.97,6.779,143.992,7.211z"/>
<path fill="#040000" d="M152.496,6.531c0,0.693-0.299,1.232-0.896,1.616c-0.564,0.368-1.34,0.552-2.326,0.552
	c-0.908,0-1.361-0.205-1.361-0.615c0-0.347,0.191-0.521,0.576-0.521c0.043,0,0.168,0.006,0.377,0.016
	c0.207,0.017,0.387,0.024,0.535,0.024c0.453,0,0.854-0.072,1.199-0.216c0.492-0.208,0.736-0.507,0.736-0.896
	c0-0.453-0.379-0.68-1.135-0.68c-0.668,0-1.244,0.163-1.729,0.488c-0.16,0.122-0.32,0.239-0.48,0.352
	c-0.186,0.149-0.359,0.225-0.52,0.225c-0.172,0-0.313-0.049-0.424-0.145c-0.113-0.096-0.168-0.213-0.168-0.352
	c0-0.123,0.051-0.285,0.152-0.488c0.234-0.405,0.469-0.971,0.703-1.696c0.064,0-0.301,0-1.096,0c-0.422,0-0.633-0.191-0.633-0.576
	c0-0.384,0.227-0.557,0.68-0.52c0.486,0.026,0.912,0.04,1.281,0.04c0.01-0.048,0.072-0.267,0.184-0.656
	c0.086-0.288,0.293-0.432,0.625-0.432c0.336,0,0.504,0.171,0.504,0.512c0,0.139-0.057,0.323-0.168,0.552
	c0.287,0,0.688-0.029,1.199-0.088s0.795-0.088,0.848-0.088c0.357,0,0.537,0.165,0.537,0.496c0,0.293-0.152,0.467-0.457,0.52
	c-0.463,0.08-1.248,0.147-2.352,0.2c-0.08,0.203-0.211,0.568-0.393,1.097c0.555-0.283,1.146-0.425,1.777-0.425
	c0.682,0,1.223,0.16,1.623,0.48C152.296,5.632,152.496,6.041,152.496,6.531z"/>
<path fill="#040000" d="M156.177,2.939c-0.064,0.512-0.127,1.029-0.186,1.552c-0.084,0.821-0.127,1.478-0.127,1.969
	c0,0.495,0.016,1.037,0.047,1.624c0.006,0.191-0.051,0.341-0.168,0.447c-0.117,0.112-0.258,0.168-0.424,0.168
	c-0.154,0-0.281-0.045-0.383-0.136c-0.117-0.102-0.18-0.237-0.184-0.408c-0.033-0.618-0.049-1.184-0.049-1.695
	c0-0.545,0.107-1.763,0.32-3.656c0.037-0.347,0.227-0.521,0.568-0.521c0.17,0,0.316,0.059,0.439,0.177
	C156.15,2.577,156.199,2.737,156.177,2.939z M161.417,7.451c0,0.145-0.063,0.286-0.186,0.425s-0.244,0.208-0.367,0.208
	c-0.23,0-0.541-0.147-0.936-0.44c-0.182,0.336-0.383,0.576-0.602,0.72c-0.256,0.171-0.586,0.256-0.99,0.256
	c-0.514,0-0.938-0.114-1.273-0.344c-0.357-0.245-0.535-0.563-0.535-0.952c0-0.447,0.189-0.794,0.568-1.04
	c0.33-0.224,0.73-0.336,1.199-0.336c0.043,0,0.125,0.008,0.248,0.024c0.148,0.032,0.248,0.051,0.297,0.056
	c-0.012-0.261-0.029-0.698-0.057-1.312c-0.998,0-1.52-0.003-1.568-0.009c-0.182,0-0.316-0.056-0.408-0.168
	c-0.096-0.106-0.146-0.234-0.152-0.384c-0.004-0.165,0.043-0.301,0.145-0.408c0.102-0.111,0.254-0.154,0.457-0.128
	c0.395,0.027,0.902,0.032,1.527,0.017c0-0.112,0-0.234,0-0.368c-0.006-0.112-0.008-0.194-0.008-0.248
	c0.016-0.48,0.229-0.72,0.641-0.72c0.398,0,0.6,0.197,0.6,0.592c-0.006,0.091-0.014,0.304-0.025,0.64
	c0.299-0.053,0.555-0.085,0.77-0.096c0.426-0.037,0.639,0.131,0.639,0.504c0,0.234-0.061,0.395-0.184,0.48
	c-0.08,0.063-0.254,0.106-0.52,0.128c-0.133,0.011-0.379,0.034-0.736,0.071c0.027,0.736,0.051,1.328,0.072,1.776
	c0.432,0.176,0.73,0.317,0.896,0.424C161.253,7.022,161.417,7.232,161.417,7.451z M158.912,7.083c-0.1-0.06-0.205-0.118-0.311-0.177
	c-0.15-0.074-0.262-0.111-0.336-0.111c-0.438,0-0.656,0.165-0.656,0.496c0,0.133,0.074,0.242,0.225,0.327
	c0.117,0.064,0.256,0.097,0.416,0.097c0.154,0,0.293-0.067,0.416-0.2C158.777,7.392,158.859,7.249,158.912,7.083z M161.048,2.995
	c0,0.075-0.035,0.142-0.104,0.2c-0.07,0.059-0.143,0.088-0.217,0.088c-0.133,0-0.234-0.059-0.303-0.176
	c-0.07-0.112-0.189-0.299-0.361-0.56c-0.09-0.139-0.135-0.256-0.135-0.353c0-0.191,0.119-0.288,0.359-0.288
	c0.111,0,0.213,0.054,0.305,0.16c0.164,0.203,0.299,0.413,0.398,0.632C161.031,2.785,161.048,2.883,161.048,2.995z M161.929,2.635
	c0,0.187-0.107,0.279-0.32,0.279c-0.133,0-0.234-0.056-0.305-0.168c-0.068-0.111-0.189-0.298-0.359-0.56
	c-0.096-0.139-0.145-0.256-0.145-0.352c0-0.192,0.123-0.288,0.369-0.288c0.111,0,0.209,0.053,0.295,0.159
	c0.17,0.208,0.307,0.419,0.408,0.633C161.91,2.424,161.929,2.523,161.929,2.635z"/>
</svg>
